<?xml version="1.0" standalone="no"?>
<!DOCTYPE svg PUBLIC "-//W3C//DTD SVG 20010904//EN"
 "http://www.w3.org/TR/2001/REC-SVG-20010904/DTD/svg10.dtd">
<svg version="1.0" xmlns="http://www.w3.org/2000/svg"
 width="272.000000pt" height="186.000000pt" viewBox="0 0 272.000000 186.000000"
 preserveAspectRatio="xMidYMid meet">

<g transform="translate(0.000000,186.000000) scale(0.100000,-0.100000)"
fill="#000000" stroke="none">
<path d="M612 933 l3 -308 194 -3 c227 -3 277 7 343 66 65 59 78 97 78 240 0
138 -10 175 -63 230 -69 72 -87 77 -335 80 l-222 3 2 -308z m489 222 c69 -49
84 -90 84 -226 0 -111 -1 -118 -30 -164 -20 -32 -45 -56 -74 -72 -42 -22 -55
-23 -233 -23 l-188 0 0 261 0 260 199 -3 199 -3 43 -30z"/>
<path d="M1482 933 l3 -308 308 -3 307 -2 0 310 0 310 -310 0 -310 0 2 -307z"/>
</g>
</svg>
